# xmcd CD Database Entry
#
# Track frame offsets:
# 150
# 25897
# 44000
# 59537
# 78442
# 93990
# 108792
# 125480
# 141365
# 158310
# 171957
# 187475
# 202215
# 215097
# 229760
# 243307
# 256650
# 270395
#
# Disc length: 3815 seconds
#
# Revision: 1
# Processed by: cddbd v1.4b42PL1 Copyright (c) Steve Scherf et al.
# Submitted via: tcd 2.0b
#
DISCID=050ee512
DTITLE=Billie Holiday - Selection Of [CD 2)
DYEAR=1900
DGENRE=
TTITLE0=One For My Baby (And One More For The Road)
TTITLE1=Comes Love
TTITLE2=Let's Call The Whole Thing Off
TTITLE3=They Can't Take That Away From Me
TTITLE4=I Wished On The Moon
TTITLE5=Say It Isn't So
TTITLE6=Love Is Here To Stay
TTITLE7=Blue Moon
TTITLE8=Autumn In New-York
TTITLE9=How Deep Is The Ocean (How High Is The Sky)
TTITLE10=Stormy Blues
TTITLE11=What A Little Moonlight Ca Do
TTITLE12=Yesterday
TTITLE13=I Can't Face The Music
TTITLE14=Easy To Love
TTITLE15=You Go To My Head
TTITLE16=Moonglow
TTITLE17=Solitude
EXTD=
EXTT0=
EXTT1=
EXTT2=
EXTT3=
EXTT4=
EXTT5=
EXTT6=
EXTT7=
EXTT8=
EXTT9=
EXTT10=
EXTT11=
EXTT12=
EXTT13=
EXTT14=
EXTT15=
EXTT16=
EXTT17=
PLAYORDER=
